<svg xmlns="http://www.w3.org/2000/svg" viewBox="0 0 400 260" role="img" aria-labelledby="title desc">
  <title>Certificate preview placeholder</title>
  <desc>Graphic placeholder used when a certificate preview is unavailable.</desc>
  <defs>
    <linearGradient id="g" x1="0" y1="0" x2="1" y2="1">
      <stop offset="0%" stop-color="#e9f2ff"/>
      <stop offset="100%" stop-color="#f8fbff"/>
    </linearGradient>
    <linearGradient id="g2" x1="0" y1="0" x2="1" y2="1">
      <stop offset="0%" stop-color="#afc8ff" stop-opacity="0.38"/>
      <stop offset="100%" stop-color="#ffffff" stop-opacity="0.05"/>
    </linearGradient>
  </defs>
  <rect width="400" height="260" rx="30" fill="url(#g)"/>
  <rect x="42" y="46" width="316" height="176" rx="18" fill="#ffffff" opacity="0.82"/>
  <path d="M94 96h212M94 132h212" stroke="#7c98d5" stroke-width="12" stroke-linecap="round" opacity="0.8"/>
  <path d="M122 116h32" stroke="#4b6fa2" stroke-width="10" stroke-linecap="round"/>
  <path d="M206 112h26" stroke="#4b6fa2" stroke-width="10" stroke-linecap="round"/>
  <path d="M160 158h82" stroke="#4b6fa2" stroke-width="10" stroke-linecap="round"/>
  <path d="M122 150h82" stroke="#4b6fa2" stroke-width="10" stroke-linecap="round" opacity="0.6"/>
  <rect x="108" y="62" width="45" height="42" rx="10" fill="url(#g2)"/>
  <path d="M118 82l-10 10 10 10" fill="none" stroke="#4b6fa2" stroke-width="8" stroke-linecap="round" stroke-linejoin="round"/>
  <circle cx="256" cy="92" r="18" fill="#4b6fa2" opacity="0.7"/>
  <circle cx="254" cy="90" r="12" fill="#ffffff"/>
  <path d="M124 193l28-34 14 18 24-30 14 18 26-34" fill="none" stroke="#7c98d5" stroke-width="10" stroke-linecap="round" stroke-linejoin="round" opacity="0.7"/>
</svg>
